<svg width="569" height="415" viewBox="0 0 569 415" fill="none" xmlns="http://www.w3.org/2000/svg">
<g filter="url(#filter0_d)">
<rect x="1" width="553" height="400" fill="#B7D1DA"/>
</g>
<line x1="0.00902526" y1="60" x2="554.009" y2="61" stroke="#1C1E27" stroke-width="10"/>
<line x1="481" y1="29" x2="524.012" y2="29" stroke="#1C1E27" stroke-width="10"/>
<line x1="415" y1="29" x2="458.012" y2="29" stroke="#1C1E27" stroke-width="10"/>
<line x1="504" y1="8" x2="504" y2="51.0116" stroke="#1C1E27" stroke-width="10"/>
<rect x="63" y="140" width="236" height="120" fill="#1C1E27"/>
<rect x="63" y="281" width="188" height="35" fill="#1C1E27"/>
<path d="M424.979 160.021C431.618 153.382 442.382 153.382 449.021 160.021L499.979 210.979C506.618 217.618 506.618 228.382 499.979 235.021L449.021 285.979C442.382 292.618 431.618 292.618 424.979 285.979L374.021 235.021C367.382 228.382 367.382 217.618 374.021 210.979L424.979 160.021Z" fill="#1C1E27"/>
<defs>
<filter id="filter0_d" x="1" y="0" width="568" height="415" filterUnits="userSpaceOnUse" color-interpolation-filters="sRGB">
<feFlood flood-opacity="0" result="BackgroundImageFix"/>
<feColorMatrix in="SourceAlpha" type="matrix" values="0 0 0 0 0 0 0 0 0 0 0 0 0 0 0 0 0 0 127 0" result="hardAlpha"/>
<feOffset dx="15" dy="15"/>
<feComposite in2="hardAlpha" operator="out"/>
<feColorMatrix type="matrix" values="0 0 0 0 0.505882 0 0 0 0 0.654902 0 0 0 0 0.701961 0 0 0 1 0"/>
<feBlend mode="normal" in2="BackgroundImageFix" result="effect1_dropShadow"/>
<feBlend mode="normal" in="SourceGraphic" in2="effect1_dropShadow" result="shape"/>
</filter>
</defs>
</svg>
